<?xml version="1.0" encoding="utf-8"?>
<!-- Generator: Adobe Illustrator 25.2.3, SVG Export Plug-In . SVG Version: 6.00 Build 0)  -->
<svg version="1.1" id="图层_1" xmlns="http://www.w3.org/2000/svg" xmlns:xlink="http://www.w3.org/1999/xlink" x="0px" y="0px"
	 viewBox="0 0 387.89 102.28" style="enable-background:new 0 0 387.89 102.28;" xml:space="preserve">
<style type="text/css">
	.st0{fill:#F5313F;}
	.st1{fill:#D2D4D6;}
</style>
<g>
	<path class="st0" d="M41.2,23.4c0-0.48,0.24-0.71,0.72-0.71h7.98c0.48,0,0.71,0.24,0.71,0.71v77.29c0,0.48-0.24,0.71-0.71,0.71
		h-7.98c-0.48,0-0.72-0.24-0.72-0.71v-4.57c-4.51,3.59-9.65,5.39-15.4,5.39c-3.48,0-6.8-0.7-9.96-2.09
		c-3.04-1.36-5.7-3.25-7.98-5.67c-4.91-5.21-7.15-11.39-6.71-18.54c0.4-6.23,2.88-11.57,7.43-16.01c4.55-4.44,9.96-6.78,16.23-7.04
		c6.12-0.26,11.59,1.54,16.39,5.39V23.4z M41.2,76.49c-0.11-4.18-1.65-7.74-4.62-10.67c-3.01-2.93-6.6-4.4-10.78-4.4
		c-4.25,0-7.89,1.5-10.89,4.51c-3.01,3.01-4.51,6.64-4.51,10.89c0,4.25,1.5,7.9,4.51,10.95c3.01,3.01,6.64,4.51,10.89,4.51
		c4.18,0,7.77-1.47,10.78-4.4c2.97-2.93,4.51-6.49,4.62-10.67V76.49z"/>
	<path class="st0" d="M85.15,51.9c6.86,0,12.69,2.4,17.49,7.21c4.84,4.84,7.26,10.67,7.26,17.49c0,6.86-2.42,12.71-7.26,17.55
		c-4.8,4.8-10.64,7.21-17.49,7.21c-6.82,0-12.65-2.4-17.49-7.21C62.82,89.3,60.4,83.46,60.4,76.6c0-6.82,2.42-12.65,7.26-17.49
		C72.5,54.3,78.33,51.9,85.15,51.9z M85.15,92.11c4.29,0,7.94-1.52,10.95-4.57c3.04-3.01,4.57-6.66,4.57-10.95
		c0-4.25-1.52-7.88-4.57-10.89c-3.01-3.04-6.66-4.57-10.95-4.57c-4.25,0-7.88,1.52-10.89,4.57c-3.04,3.01-4.57,6.64-4.57,10.89
		c0,4.29,1.52,7.94,4.57,10.95C77.27,90.59,80.9,92.11,85.15,92.11z"/>
	<path class="st0" d="M137.74,91.94c1.17,0.59,2.55,0.39,4.13-0.6c0.37-0.22,0.68-0.15,0.94,0.22l4.67,6.27
		c0.33,0.4,0.28,0.73-0.17,0.99c-2.6,1.8-5.33,2.7-8.2,2.7c-1.94,0-3.8-0.44-5.56-1.32c-2.24-1.1-4-2.79-5.28-5.06
		c-1.25-2.27-1.87-4.84-1.87-7.7V61.2h-7.54c-0.48,0-0.71-0.24-0.71-0.72v-7.81c0-0.48,0.24-0.72,0.71-0.72h7.54l-0.05-10.4
		c0-0.48,0.24-0.72,0.71-0.72h7.87c0.48,0,0.71,0.24,0.71,0.72v10.4h7.54c0.48,0,0.71,0.24,0.71,0.72v7.81
		c0,0.48-0.24,0.72-0.71,0.72h-7.54v26.24C135.65,89.74,136.35,91.25,137.74,91.94z"/>
	<path class="st1" d="M178.56,92.27c2.93,0,5.63-0.77,8.09-2.31c0.4-0.22,0.73-0.15,0.99,0.22l4.4,6.49
		c0.29,0.4,0.22,0.73-0.22,0.99c-4.03,2.57-8.45,3.85-13.26,3.85c-7,0-12.95-2.53-17.82-7.59c-4.88-5.1-7.15-11.18-6.82-18.26
		c0.26-6.16,2.57-11.5,6.93-16.01s9.61-7,15.73-7.48c5.5-0.44,10.56,0.81,15.18,3.74c0.44,0.26,0.51,0.6,0.22,1.04l-4.4,6.49
		c-0.26,0.37-0.57,0.42-0.94,0.17c-3.12-1.87-6.51-2.57-10.18-2.09c-3.48,0.44-6.47,1.96-8.97,4.57c-2.49,2.6-3.92,5.67-4.29,9.19
		c-0.44,4.58,0.88,8.56,3.96,11.94S174.05,92.27,178.56,92.27z"/>
	<path class="st1" d="M247.48,85.29c0,4.62,0.02,8.49,0.05,11.61v3.91c0,0.48-0.24,0.71-0.71,0.71h-7.87
		c-0.48,0-0.71-0.24-0.71-0.71v-3.91c0.04-3.12,0.07-6.99,0.11-11.61c0-1.36,0-3.23,0-5.61v-1.49l0.06-1.59c0-1.21,0-2.27,0-3.19
		v-0.83v-0.55c-0.04-0.44-0.07-0.84-0.11-1.21c-0.15-0.81-0.35-1.6-0.6-2.37c-0.62-1.58-1.54-2.95-2.75-4.13
		c-1.21-1.21-2.6-2.09-4.18-2.64c-0.81-0.26-1.61-0.44-2.42-0.55c-0.07,0-0.17,0-0.28,0l-0.22-0.06c-0.04,0-0.17,0-0.38,0h-0.39
		h-0.11h-0.11h-0.33h-0.28h-0.33c-1.54,0.11-2.99,0.53-4.35,1.27c-1.21,0.62-2.31,1.45-3.3,2.48c-0.77,0.84-1.41,1.8-1.93,2.86
		c-0.4,0.84-0.7,1.71-0.88,2.59c-0.11,0.4-0.18,0.73-0.22,0.99v0.16v0.17l-0.06,0.28c0,0.37-0.02,0.64-0.05,0.83l-0.11,2.81v25.14
		c0,0.51-0.24,0.77-0.71,0.77h-7.98c-0.48,0-0.72-0.26-0.72-0.77V23.29c0-0.48,0.24-0.72,0.72-0.72h7.98c0.48,0,0.71,0.24,0.71,0.72
		v33.22c0.88-0.66,1.74-1.21,2.59-1.65c2.35-1.28,4.86-2.07,7.54-2.37l0.5-0.06h0.55h0.5l0.28-0.05h0.33l0.38,0.05h0.22h0.28
		l0.6,0.06c0.22,0,0.4,0.02,0.55,0.06c1.43,0.15,2.84,0.44,4.24,0.88c2.82,0.95,5.32,2.46,7.48,4.51c2.16,2.05,3.8,4.49,4.9,7.32
		c0.55,1.32,0.93,2.71,1.16,4.18c0.11,0.66,0.2,1.36,0.27,2.09v1.04v0.83c0.04,0.92,0.06,1.98,0.06,3.19v1.59v1.49
		C247.43,82.06,247.44,83.93,247.48,85.29z"/>
	<path class="st1" d="M296.49,77.48c-0.04,1.28-0.05,2.24-0.05,2.86c0,3.19,0.22,7.02,0.66,11.5c0.15,1.65,0.33,3.34,0.55,5.06
		c0.15,1.28,0.31,2.55,0.5,3.8c0.07,0.55-0.17,0.83-0.71,0.83h-7.92c-0.4,0-0.64-0.2-0.72-0.61c-0.18-1.36-0.35-2.73-0.5-4.12
		c-3.74,3.12-8.18,4.68-13.31,4.68c-5.28,0-9.41-1.36-12.38-4.07c-2.97-2.75-4.46-6.55-4.46-11.39c0-4.33,1.56-7.87,4.68-10.62
		c4.73-4.22,12.83-5.96,24.31-5.23c-0.26-3.26-1.01-5.54-2.26-6.82c-1.28-1.36-3.54-2.04-6.77-2.04c-2.42,0-4.64,0.42-6.66,1.27
		c-0.73,0.29-1.43,0.64-2.09,1.04c-0.48,0.29-0.9,0.59-1.27,0.88c-0.33,0.29-0.64,0.29-0.93,0l-5.83-5.34
		c-0.37-0.37-0.37-0.71,0-1.04c0.26-0.26,0.53-0.5,0.83-0.72c0.37-0.33,0.77-0.64,1.21-0.94c1.06-0.73,2.22-1.39,3.47-1.98
		c3.41-1.61,7.17-2.42,11.28-2.42c5.83,0,10.3,1.6,13.42,4.79c2.16,2.24,3.61,5.21,4.35,8.91c0.51,2.46,0.73,5.76,0.66,9.9
		C296.55,76.25,296.53,76.85,296.49,77.48z M274.98,92.22c1.06,0,2.11-0.13,3.14-0.38c1.36-0.37,2.58-0.94,3.69-1.71
		c2.93-2.13,4.69-5.68,5.28-10.67c-1.65-0.11-3.23-0.16-4.73-0.16c-6.64,0-11.11,1.03-13.42,3.08c-0.99,0.88-1.49,2.09-1.49,3.63
		c0,1.98,0.39,3.41,1.16,4.29C269.74,91.58,271.87,92.22,274.98,92.22z"/>
	<path class="st1" d="M326.09,91.94c1.17,0.59,2.55,0.39,4.13-0.6c0.37-0.22,0.68-0.15,0.94,0.22l4.67,6.27
		c0.33,0.4,0.28,0.73-0.17,0.99c-2.6,1.8-5.33,2.7-8.2,2.7c-1.94,0-3.8-0.44-5.56-1.32c-2.24-1.1-4-2.79-5.28-5.06
		c-1.25-2.27-1.87-4.84-1.87-7.7V61.2h-7.54c-0.48,0-0.71-0.24-0.71-0.72v-7.81c0-0.48,0.24-0.72,0.71-0.72h7.54l-0.05-10.4
		c0-0.48,0.24-0.72,0.71-0.72h7.87c0.48,0,0.71,0.24,0.71,0.72v10.4h7.54c0.48,0,0.71,0.24,0.71,0.72v7.81
		c0,0.48-0.24,0.72-0.71,0.72H324v26.24C324,89.74,324.69,91.25,326.09,91.94z"/>
</g>
<path class="st0" d="M364.31,0.5c-12.53,0-22.69,10.16-22.69,22.69c0,12.53,10.16,22.69,22.69,22.69S387,35.71,387,23.18
	C387,10.65,376.84,0.5,364.31,0.5z M364.52,30.4c-3.98,0-7.21-3.23-7.21-7.21c0-3.98,3.23-7.21,7.21-7.21
	c3.98,0,7.21,3.23,7.21,7.21C371.73,27.17,368.51,30.4,364.52,30.4z"/>
</svg>
