<?xml version="1.0" standalone="no"?><!DOCTYPE svg PUBLIC "-//W3C//DTD SVG 1.1//EN" "http://www.w3.org/Graphics/SVG/1.1/DTD/svg11.dtd"><svg t="1650800967607" class="icon" viewBox="0 0 1229 1024" version="1.1" xmlns="http://www.w3.org/2000/svg" p-id="11995" xmlns:xlink="http://www.w3.org/1999/xlink" width="38.40625" height="32"><defs><style type="text/css">@font-face { font-family: feedback-iconfont; src: url("//at.alicdn.com/t/font_1031158_u69w8yhxdu.woff2?t=1630033759944") format("woff2"), url("//at.alicdn.com/t/font_1031158_u69w8yhxdu.woff?t=1630033759944") format("woff"), url("//at.alicdn.com/t/font_1031158_u69w8yhxdu.ttf?t=1630033759944") format("truetype"); }
</style></defs><path d="M839.782036 1023.903619H389.36428a20.54335 20.54335 0 1 1 0-40.894707h450.417756a20.54335 20.54335 0 1 1 0 40.894707z" p-id="11996" fill="#8a8a8a"></path><path d="M716.905922 1023.903619H512.240395a20.351356 20.351356 0 0 1-20.543351-20.351356V860.132798a20.54335 20.54335 0 1 1 40.894707 0v122.876114h163.962815v-102.332763a20.54335 20.54335 0 1 1 40.894706 0v122.876114a20.351356 20.351356 0 0 1-20.54335 20.351356zM1167.515671 819.238092H61.630645a61.822045 61.822045 0 0 1-61.438057-61.438057v-57.598179a20.54335 20.54335 0 1 1 40.894707 0v57.598179a20.54335 20.54335 0 0 0 20.54335 20.351356h1105.885026a20.735344 20.735344 0 0 0 20.543351-20.351356V61.438057a20.735344 20.735344 0 0 0-20.543351-20.54335H833.830224a20.159362 20.159362 0 0 1-20.351356-20.351357A20.351356 20.351356 0 0 1 833.830224 0H1167.515671A61.630051 61.630051 0 0 1 1228.953728 61.438057v696.361978a61.822045 61.822045 0 0 1-61.438057 61.438057zM20.735938 637.803829a20.54335 20.54335 0 1 1 20.351357-20.54335 20.54335 20.54335 0 0 1-20.351357 20.54335z m0-81.981407A20.54335 20.54335 0 0 1 0.192588 535.279072V61.438057A61.438057 61.438057 0 0 1 61.630645 0h691.178142a20.351356 20.351356 0 0 1 20.351356 20.54335 20.159362 20.159362 0 0 1-20.351356 20.351357h-691.178142A20.54335 20.54335 0 0 0 41.087295 61.438057v473.841015A20.351356 20.351356 0 0 1 20.735938 556.782392z" p-id="11997" fill="#8a8a8a"></path><path d="M1038.687746 674.858658V167.418705a38.398786 38.398786 0 0 0-38.398786-38.398785h-771.815591a38.398786 38.398786 0 0 0-38.398786 38.398785v507.439953a14.975526 14.975526 0 0 0 14.783532 14.783532h819.046098a14.975526 14.975526 0 0 0 14.783533-14.783532z m-818.470116-14.783533V265.527603h46.654524a14.783532 14.783532 0 1 0 0-29.567065h-46.654524V167.418705a8.255739 8.255739 0 0 1 8.255739-8.255739h772.199579a8.255739 8.255739 0 0 1 8.255739 8.255739v68.541833H330.614138a14.783532 14.783532 0 0 0 0 29.567065h678.314549v394.547522z" p-id="11998" fill="#8a8a8a"></path><path d="M277.239826 199.481691a14.783532 14.783532 0 0 1-29.567065 0 14.783532 14.783532 0 0 1 29.567065 0zM330.614138 199.481691a14.783532 14.783532 0 1 1-14.783532-14.783532 14.783532 14.783532 0 0 1 14.783532 14.783532zM384.180444 199.481691a14.783532 14.783532 0 0 1-29.567065 0 14.783532 14.783532 0 0 1 29.567065 0zM471.729676 473.841015a14.783532 14.783532 0 0 0 20.927338 0L524.144018 441.586035a14.783532 14.783532 0 0 0-20.927338-19.199393l-6.143806 6.3358v-43.00664a19.199393 19.199393 0 0 1 19.199393-19.199393h43.198634a19.199393 19.199393 0 0 1 19.199393 19.199393 14.783532 14.783532 0 1 0 29.567065 0 48.38247 48.38247 0 0 0-48.38247-48.38247h-43.96661a48.574464 48.574464 0 0 0-48.574464 48.38247v42.04667L460.978016 422.386642a14.783532 14.783532 0 0 0-20.735345 19.199393zM603.053523 422.386642a15.16752 15.16752 0 0 0-20.927339 0l-31.487004 31.678998a14.783532 14.783532 0 0 0 20.927338 20.927338l6.3358-6.335799v39.358755a19.199393 19.199393 0 0 1-19.199393 19.199393h-42.814646a19.199393 19.199393 0 0 1-19.199393-19.199393 14.975526 14.975526 0 1 0-29.759059 0A48.574464 48.574464 0 0 0 515.888279 556.782392h43.198634a48.38247 48.38247 0 0 0 48.38247-48.38247v-40.318725l6.3358 6.3358a15.16752 15.16752 0 0 0 20.927338 0 14.783532 14.783532 0 0 0 0-20.927339zM406.45174 499.184213l-6.719787-17.087459h-55.486246l-6.527793 17.471447a63.54999 63.54999 0 0 1-6.719788 14.015557 10.175678 10.175678 0 0 1-8.83172 3.455891 12.479605 12.479605 0 0 1-9.215709-3.839879 11.519636 11.519636 0 0 1-4.031872-8.639727 19.199393 19.199393 0 0 1 0.959969-5.759818c0-1.919939 1.727945-4.799848 3.071903-8.255738l35.134889-88.893189 3.455891-9.215709a49.150446 49.150446 0 0 1 4.607854-9.023714 19.199393 19.199393 0 0 1 6.143806-5.759818 20.927338 20.927338 0 0 1 9.599696-2.111933 20.351356 20.351356 0 0 1 9.599696 2.111933 19.199393 19.199393 0 0 1 6.3358 5.759818 46.462531 46.462531 0 0 1 4.031873 7.487763c1.151964 2.495921 2.495921 6.143806 4.223866 10.559666l35.710871 88.317207a47.230506 47.230506 0 0 1 4.223866 14.591538 12.095617 12.095617 0 0 1-4.031872 8.831721 13.439575 13.439575 0 0 1-9.599697 3.839879 12.479605 12.479605 0 0 1-5.567824-1.151964 10.175678 10.175678 0 0 1-3.839878-3.071903 24.959211 24.959211 0 0 1-3.455891-6.143806c-1.151964-2.495921-2.303927-4.799848-3.071903-7.487763z m-54.910263-38.398785h40.894706l-20.735344-55.67824zM752.424799 499.184213l-6.527794-17.087459h-55.678239l-6.527794 17.087459a65.46993 65.46993 0 0 1-6.527793 14.015557 10.75166 10.75166 0 0 1-8.831721 3.455891 12.671599 12.671599 0 0 1-9.407702-3.839879 11.903624 11.903624 0 0 1-3.839879-8.639727 19.199393 19.199393 0 0 1 0-5.759817l3.071903-8.255739 35.134889-88.893189c0-2.687915 2.111933-5.759818 3.647884-9.215709a49.534433 49.534433 0 0 1 4.415861-9.023714 19.199393 19.199393 0 0 1 6.143805-5.759818 21.50332 21.50332 0 0 1 9.599697-2.111933 21.695314 21.695314 0 0 1 9.79169 2.111933 19.199393 19.199393 0 0 1 6.143806 5.759818 28.223107 28.223107 0 0 1 4.031872 7.487763c1.151964 2.495921 2.495921 6.143806 4.223867 10.559666l35.710871 88.317207a42.238664 42.238664 0 0 1 4.223866 14.591539 12.095617 12.095617 0 0 1-4.031873 8.83172 13.247581 13.247581 0 0 1-9.599696 3.839879 12.479605 12.479605 0 0 1-5.567824-1.151964 10.175678 10.175678 0 0 1-3.839878-3.071903 24.959211 24.959211 0 0 1-3.455891-6.143805c-0.383988-2.111933-1.535951-4.41586-2.303927-7.103776z m-54.910264-38.398785h40.894707l-20.735344-55.67824zM797.351378 488.624547l30.527034-44.734585L802.151226 403.187249a66.045911 66.045911 0 0 1-5.37583-9.79169 19.199393 19.199393 0 0 1-1.919939-8.063745 9.407702 9.407702 0 0 1 3.455891-7.103775 12.479605 12.479605 0 0 1 8.639726-3.071903 11.71163 11.71163 0 0 1 9.023715 3.45589 81.981407 81.981407 0 0 1 8.831721 12.6716L844.965872 425.266551l22.079302-33.21495 4.607854-7.295769a38.398786 38.398786 0 0 1 3.647885-4.991842 15.359514 15.359514 0 0 1 4.031872-2.879909 12.863593 12.863593 0 0 1 4.991842-0.95997 12.287611 12.287611 0 0 1 8.639727 3.071903 10.367672 10.367672 0 0 1 3.263897 7.487763 33.982925 33.982925 0 0 1-7.295769 16.895466l-26.87915 40.510719 28.991083 44.734585a65.853917 65.853917 0 0 1 5.759818 9.599697 19.199393 19.199393 0 0 1 1.727945 7.487763 13.055587 13.055587 0 0 1-1.535951 5.951812 12.863593 12.863593 0 0 1-11.135648 5.759817 11.71163 11.71163 0 0 1-6.527794-1.535951 14.975526 14.975526 0 0 1-4.41586-4.031872l-6.3358-9.407703-23.999241-38.398786-25.535192 38.398786c-2.111933 3.263897-3.455891 5.37583-4.415861 6.527794a17.279454 17.279454 0 0 1-2.879908 3.647884 12.671599 12.671599 0 0 1-4.223867 2.879909 14.015557 14.015557 0 0 1-5.759818 0.95997 11.327642 11.327642 0 0 1-8.255739-3.071903 10.943654 10.943654 0 0 1-3.45589-8.831721 31.487004 31.487004 0 0 1 7.295769-15.935496z" p-id="11999" fill="#8a8a8a"></path></svg>