<?xml version="1.0" standalone="no"?><!DOCTYPE svg PUBLIC "-//W3C//DTD SVG 1.1//EN" "http://www.w3.org/Graphics/SVG/1.1/DTD/svg11.dtd"><svg t="1650800990718" class="icon" viewBox="0 0 1024 1024" version="1.1" xmlns="http://www.w3.org/2000/svg" p-id="12408" xmlns:xlink="http://www.w3.org/1999/xlink" width="32" height="32"><defs><style type="text/css">@font-face { font-family: feedback-iconfont; src: url("//at.alicdn.com/t/font_1031158_u69w8yhxdu.woff2?t=1630033759944") format("woff2"), url("//at.alicdn.com/t/font_1031158_u69w8yhxdu.woff?t=1630033759944") format("woff"), url("//at.alicdn.com/t/font_1031158_u69w8yhxdu.ttf?t=1630033759944") format("truetype"); }
</style></defs><path d="M668.8 640c0 97.6-91.2 94.4-100.8 94.4H382.4V547.2h185.6c97.6 0 100.8 73.6 100.8 92.8z m-115.2-168c1.6 0 88 1.6 88-83.2 0-35.2-8-81.6-88-81.6H382.4v164.8h171.2zM1024 171.2v683.2C1024 947.2 947.2 1024 852.8 1024H171.2C76.8 1024 0 947.2 0 852.8V171.2C0 76.8 76.8 0 171.2 0h683.2C947.2 0 1024 76.8 1024 171.2zM772.8 652.8c0-49.6-14.4-132.8-112-153.6v-1.6c52.8-22.4 84.8-64 84.8-126.4 0-16 4.8-148.8-177.6-148.8H278.4v596.8c292.8 0 320 3.2 374.4-12.8 32-9.6 120-40 120-153.6z" p-id="12409" fill="#8a8a8a"></path></svg>