<?xml version="1.0" standalone="no"?><!DOCTYPE svg PUBLIC "-//W3C//DTD SVG 1.1//EN" "http://www.w3.org/Graphics/SVG/1.1/DTD/svg11.dtd"><svg t="1650801326865" class="icon" viewBox="0 0 1024 1024" version="1.1" xmlns="http://www.w3.org/2000/svg" p-id="17654" xmlns:xlink="http://www.w3.org/1999/xlink" width="32" height="32"><defs><style type="text/css">@font-face { font-family: feedback-iconfont; src: url("//at.alicdn.com/t/font_1031158_u69w8yhxdu.woff2?t=1630033759944") format("woff2"), url("//at.alicdn.com/t/font_1031158_u69w8yhxdu.woff?t=1630033759944") format("woff"), url("//at.alicdn.com/t/font_1031158_u69w8yhxdu.ttf?t=1630033759944") format("truetype"); }
</style></defs><path d="M864 64H160A96 96 0 0 0 64 160v704a96 96 0 0 0 96 96h704a96 96 0 0 0 96-96V160a96 96 0 0 0-96-96z m-128 560c-63.2 22.4-82.4 32-119.6 32-62.8 0-86.4-32-149.2-32a160 160 0 0 0-51.2 8v-64a171.8 171.8 0 0 1 51.2-8c62.4 0 86.4 32 149.2 32 20.4 0 35.6-2.8 55.6-9.2v-192c-20 6.4-35.2 9.2-55.6 9.2-62.8 0-86.4-32-149.2-32-50.8 0-74.8 20.8-115.2 28.8V704a32 32 0 0 1-64 0V320a32 32 0 0 1 64 0v12.8c40.4-8 64.4-28.8 115.2-28.8 62.4 0 86.4 32 149.2 32 37.2 0 56.4-9.6 119.6-32z" p-id="17655" fill="#8a8a8a"></path></svg>