<?xml version="1.0" standalone="no"?><!DOCTYPE svg PUBLIC "-//W3C//DTD SVG 1.1//EN" "http://www.w3.org/Graphics/SVG/1.1/DTD/svg11.dtd"><svg t="1650800799251" class="icon" viewBox="0 0 1024 1024" version="1.1" xmlns="http://www.w3.org/2000/svg" p-id="10480" xmlns:xlink="http://www.w3.org/1999/xlink" width="32" height="32"><defs><style type="text/css">@font-face { font-family: feedback-iconfont; src: url("//at.alicdn.com/t/font_1031158_u69w8yhxdu.woff2?t=1630033759944") format("woff2"), url("//at.alicdn.com/t/font_1031158_u69w8yhxdu.woff?t=1630033759944") format("woff"), url("//at.alicdn.com/t/font_1031158_u69w8yhxdu.ttf?t=1630033759944") format("truetype"); }
</style></defs><path d="M927.5 161.4L786.9 93.8l-43.5-20.9c-5.4-2.6-11-4.2-16.7-5h-0.2c-0.6-0.1-1.2-0.2-1.8-0.2-16.3-1.6-32.9 4-44.9 16.1 0.8-0.8 1.7-1.6 2.6-2.3-0.8 0.7-1.7 1.5-2.5 2.3L327.3 405.1 173.7 288.7c-14.3-10.9-34.4-10-47.7 2.1l-49.2 44.7c-0.9 0.8-1.7 1.6-2.5 2.5-13.8 15.2-12.7 38.8 2.6 52.6L210.1 512 76.9 633.4c-15.2 13.8-16.4 37.4-2.6 52.6 0.8 0.9 1.6 1.7 2.5 2.5l49.2 44.7c13.3 12.1 33.3 13 47.6 2.1l153.6-116.5 352.7 321.6c16.7 16.7 42.2 21.1 63.5 10.8l184.2-88.5c19.4-9.3 31.7-28.9 31.7-50.3V211.7c0-21.5-12.4-41.1-31.8-50.3zM468.1 512l267.5-202.9v405.8L468.1 512z" fill="#8a8a8a" p-id="10481"></path></svg>